<?xml version="1.0" standalone="no"?>
<!DOCTYPE svg PUBLIC "-//W3C//DTD SVG 20010904//EN"
 "http://www.w3.org/TR/2001/REC-SVG-20010904/DTD/svg10.dtd">
<svg version="1.0" xmlns="http://www.w3.org/2000/svg"
 width="512.000000pt" height="512.000000pt" viewBox="0 0 512.000000 512.000000"
 preserveAspectRatio="xMidYMid meet">

<g transform="translate(0.000000,512.000000) scale(0.100000,-0.100000)"
fill="#000000" stroke="none">
<path d="M1130 4843 c-422 -70 -756 -387 -841 -797 -18 -87 -19 -159 -19
-1486 0 -1322 1 -1400 19 -1485 83 -402 401 -713 809 -791 61 -12 312 -14
1465 -14 1324 0 1396 1 1483 19 378 78 671 359 777 746 l22 80 0 1445 0 1445
-22 80 c-106 387 -399 668 -777 746 -87 18 -156 19 -1491 18 -770 -1 -1411 -4
-1425 -6z m1743 -1367 c46 -19 83 -64 97 -114 11 -42 5 -61 -256 -843 -290
-873 -284 -857 -367 -880 -22 -6 -55 -8 -74 -4 -49 9 -108 66 -123 119 -12 44
-11 48 255 846 221 663 272 808 297 836 44 50 111 66 171 40z m-1002 -269 c69
-47 96 -121 69 -194 -6 -15 -106 -124 -223 -240 l-212 -213 212 -212 c117
-117 217 -226 223 -241 17 -47 12 -101 -13 -138 -48 -72 -126 -97 -200 -65
-18 8 -159 141 -314 297 -304 307 -305 308 -288 397 6 32 45 76 288 321 155
156 296 289 312 297 47 21 107 17 146 -9z m1522 9 c18 -8 159 -141 314 -297
243 -245 282 -289 288 -321 17 -89 16 -90 -288 -397 -155 -156 -296 -289 -314
-297 -74 -32 -152 -7 -200 65 -25 37 -30 91 -13 138 6 15 106 124 223 241
l212 212 -212 213 c-117 116 -217 225 -223 240 -17 47 -12 101 13 138 48 72
126 97 200 65z"/>
</g>
</svg>
